<svg width="25" height="26" viewBox="0 0 25 26" fill="none" xmlns="http://www.w3.org/2000/svg">
<path d="M24.626 15.5256C22.9563 22.2228 16.1731 26.2986 9.47506 24.6285C2.77983 22.9589 -1.29599 16.1752 0.374399 9.47854C2.04332 2.78055 8.82655 -1.29557 15.5225 0.374085C22.2201 2.04374 26.2956 8.82813 24.6258 15.5257L24.6259 15.5256H24.626Z" fill="#F7931A"/>
<path d="M18.0293 10.702C18.2781 9.03833 17.0115 8.14405 15.2795 7.54747L15.8414 5.29389L14.4696 4.95207L13.9226 7.14631C13.562 7.05636 13.1916 6.97161 12.8235 6.88759L13.3744 4.67886L12.0035 4.33704L11.4413 6.58988C11.1429 6.52193 10.8497 6.45478 10.5653 6.38402L10.5669 6.37693L8.67516 5.90452L8.31023 7.36972C8.31023 7.36972 9.32801 7.60302 9.30656 7.61738C9.86207 7.75603 9.96253 8.12376 9.94585 8.41523L9.30583 10.9826C9.34408 10.9923 9.3937 11.0064 9.44845 11.0284C9.40268 11.017 9.35398 11.0046 9.30345 10.9925L8.40635 14.589C8.33846 14.7578 8.16615 15.0111 7.77776 14.9149C7.79151 14.9348 6.78069 14.666 6.78069 14.666L6.09961 16.2363L7.88481 16.6814C8.21692 16.7647 8.54237 16.8518 8.86287 16.9337L8.2952 19.2132L9.66544 19.555L10.2276 17.2998C10.6019 17.4014 10.9652 17.4951 11.3209 17.5835L10.7606 19.8281L12.1325 20.1699L12.7001 17.8948C15.0393 18.3375 16.7983 18.159 17.5386 16.0431C18.1352 14.3396 17.5089 13.357 16.2782 12.7163C17.1746 12.5096 17.8498 11.92 18.0298 10.7022L18.0293 10.7019L18.0293 10.702ZM14.895 15.0971C14.471 16.8006 11.6029 15.8797 10.6729 15.6488L11.4263 12.629C12.3561 12.8611 15.3381 13.3205 14.8951 15.0971H14.895ZM15.3192 10.6773C14.9325 12.2268 12.5453 11.4396 11.7709 11.2466L12.4539 8.50775C13.2283 8.70078 15.7221 9.06106 15.3194 10.6773H15.3192Z" fill="white"/>
</svg>
